<mxfile host="app.diagrams.net" modified="2021-06-27T08:12:57.561Z" agent="5.0 (Windows NT 10.0; Win64; x64) AppleWebKit/537.36 (KHTML, like Gecko) Chrome/91.0.4472.77 Safari/537.36" etag="LL-fGBpRFELPZDvx0DRQ" version="14.8.1" type="github">
  <diagram id="I5Fd7SMg0KVEPFep5T2a" name="第 1 页">
    <mxGraphModel dx="2167" dy="1172" grid="0" gridSize="10" guides="1" tooltips="1" connect="1" arrows="1" fold="1" page="0" pageScale="1" pageWidth="827" pageHeight="1169" math="0" shadow="0">
      <root>
        <mxCell id="0" />
        <mxCell id="1" parent="0" />
        <mxCell id="XmuJKlaoHCdb-jjRxGKU-20" value="" style="rounded=0;whiteSpace=wrap;html=1;fillColor=#f5f5f5;strokeColor=#666666;fontColor=#333333;fontSize=18;" vertex="1" parent="1">
          <mxGeometry x="360" y="-160" width="360" height="510" as="geometry" />
        </mxCell>
        <mxCell id="XmuJKlaoHCdb-jjRxGKU-3" value="" style="edgeStyle=orthogonalEdgeStyle;rounded=0;orthogonalLoop=1;jettySize=auto;html=1;fontSize=18;" edge="1" parent="1" source="XmuJKlaoHCdb-jjRxGKU-5" target="XmuJKlaoHCdb-jjRxGKU-9">
          <mxGeometry relative="1" as="geometry" />
        </mxCell>
        <mxCell id="XmuJKlaoHCdb-jjRxGKU-4" value="第一步" style="edgeLabel;html=1;align=center;verticalAlign=middle;resizable=0;points=[];fontSize=18;" vertex="1" connectable="0" parent="XmuJKlaoHCdb-jjRxGKU-3">
          <mxGeometry x="-0.2236" y="-1" relative="1" as="geometry">
            <mxPoint x="1" y="-1" as="offset" />
          </mxGeometry>
        </mxCell>
        <mxCell id="XmuJKlaoHCdb-jjRxGKU-5" value="" style="aspect=fixed;html=1;points=[];align=center;image;fontSize=18;image=img/lib/mscae/Cache_Redis_Product.svg;" vertex="1" parent="1">
          <mxGeometry x="556.3199999999999" y="-90" width="130.95" height="110" as="geometry" />
        </mxCell>
        <mxCell id="XmuJKlaoHCdb-jjRxGKU-6" value="" style="edgeStyle=orthogonalEdgeStyle;rounded=0;orthogonalLoop=1;jettySize=auto;html=1;fontSize=18;" edge="1" parent="1" source="XmuJKlaoHCdb-jjRxGKU-9" target="XmuJKlaoHCdb-jjRxGKU-10">
          <mxGeometry relative="1" as="geometry" />
        </mxCell>
        <mxCell id="XmuJKlaoHCdb-jjRxGKU-7" value="" style="edgeStyle=orthogonalEdgeStyle;rounded=0;orthogonalLoop=1;jettySize=auto;html=1;fontSize=18;" edge="1" parent="1" source="XmuJKlaoHCdb-jjRxGKU-9" target="XmuJKlaoHCdb-jjRxGKU-12">
          <mxGeometry relative="1" as="geometry" />
        </mxCell>
        <mxCell id="XmuJKlaoHCdb-jjRxGKU-8" value="第二步" style="edgeLabel;html=1;align=center;verticalAlign=middle;resizable=0;points=[];fontSize=18;" vertex="1" connectable="0" parent="XmuJKlaoHCdb-jjRxGKU-7">
          <mxGeometry x="0.2065" y="-4" relative="1" as="geometry">
            <mxPoint x="4" y="-4" as="offset" />
          </mxGeometry>
        </mxCell>
        <mxCell id="XmuJKlaoHCdb-jjRxGKU-9" value="&lt;span style=&quot;font-family: helvetica; font-size: 18px;&quot;&gt;执行命令&lt;/span&gt;" style="whiteSpace=wrap;html=1;verticalAlign=middle;labelBackgroundColor=white;fontSize=18;" vertex="1" parent="1">
          <mxGeometry x="536.4200000000001" y="100" width="163.58" height="60" as="geometry" />
        </mxCell>
        <mxCell id="XmuJKlaoHCdb-jjRxGKU-19" style="edgeStyle=orthogonalEdgeStyle;rounded=0;orthogonalLoop=1;jettySize=auto;html=1;exitX=-0.024;exitY=0.182;exitDx=0;exitDy=0;exitPerimeter=0;curved=1;entryX=0.5;entryY=0;entryDx=0;entryDy=0;fontSize=18;" edge="1" parent="1" source="XmuJKlaoHCdb-jjRxGKU-20" target="XmuJKlaoHCdb-jjRxGKU-18">
          <mxGeometry relative="1" as="geometry">
            <mxPoint x="340" y="130" as="sourcePoint" />
          </mxGeometry>
        </mxCell>
        <mxCell id="XmuJKlaoHCdb-jjRxGKU-31" value="fork" style="edgeLabel;html=1;align=center;verticalAlign=middle;resizable=0;points=[];fontSize=18;" vertex="1" connectable="0" parent="XmuJKlaoHCdb-jjRxGKU-19">
          <mxGeometry x="-0.3265" y="12" relative="1" as="geometry">
            <mxPoint as="offset" />
          </mxGeometry>
        </mxCell>
        <mxCell id="XmuJKlaoHCdb-jjRxGKU-27" style="edgeStyle=orthogonalEdgeStyle;curved=1;rounded=0;orthogonalLoop=1;jettySize=auto;html=1;entryX=1;entryY=0.5;entryDx=0;entryDy=0;fontSize=18;" edge="1" parent="1" source="XmuJKlaoHCdb-jjRxGKU-10" target="XmuJKlaoHCdb-jjRxGKU-25">
          <mxGeometry relative="1" as="geometry" />
        </mxCell>
        <mxCell id="XmuJKlaoHCdb-jjRxGKU-28" value="copy" style="edgeLabel;html=1;align=center;verticalAlign=middle;resizable=0;points=[];fontSize=18;" vertex="1" connectable="0" parent="XmuJKlaoHCdb-jjRxGKU-27">
          <mxGeometry x="-0.0816" y="-1" relative="1" as="geometry">
            <mxPoint as="offset" />
          </mxGeometry>
        </mxCell>
        <mxCell id="XmuJKlaoHCdb-jjRxGKU-10" value="内存" style="whiteSpace=wrap;html=1;verticalAlign=middle;labelBackgroundColor=white;fontSize=18;" vertex="1" parent="1">
          <mxGeometry x="380.00000000000006" y="100" width="120" height="60" as="geometry" />
        </mxCell>
        <mxCell id="XmuJKlaoHCdb-jjRxGKU-11" value="" style="edgeStyle=orthogonalEdgeStyle;rounded=0;orthogonalLoop=1;jettySize=auto;html=1;fontSize=18;" edge="1" parent="1" source="XmuJKlaoHCdb-jjRxGKU-12" target="XmuJKlaoHCdb-jjRxGKU-13">
          <mxGeometry relative="1" as="geometry" />
        </mxCell>
        <mxCell id="XmuJKlaoHCdb-jjRxGKU-12" value="记录日志" style="whiteSpace=wrap;html=1;labelBackgroundColor=white;fontSize=18;" vertex="1" parent="1">
          <mxGeometry x="536.42" y="250" width="163.58" height="60" as="geometry" />
        </mxCell>
        <mxCell id="XmuJKlaoHCdb-jjRxGKU-13" value="磁盘" style="whiteSpace=wrap;html=1;labelBackgroundColor=white;fontSize=18;" vertex="1" parent="1">
          <mxGeometry x="380" y="250" width="120" height="60" as="geometry" />
        </mxCell>
        <mxCell id="XmuJKlaoHCdb-jjRxGKU-26" value="" style="edgeStyle=orthogonalEdgeStyle;curved=1;rounded=0;orthogonalLoop=1;jettySize=auto;html=1;fontSize=18;" edge="1" parent="1" source="XmuJKlaoHCdb-jjRxGKU-18" target="XmuJKlaoHCdb-jjRxGKU-25">
          <mxGeometry relative="1" as="geometry" />
        </mxCell>
        <mxCell id="XmuJKlaoHCdb-jjRxGKU-18" value="子线程" style="rounded=0;whiteSpace=wrap;html=1;fontSize=18;" vertex="1" parent="1">
          <mxGeometry x="130" y="65" width="120" height="60" as="geometry" />
        </mxCell>
        <mxCell id="XmuJKlaoHCdb-jjRxGKU-21" value="主线程" style="text;html=1;strokeColor=none;fillColor=none;align=center;verticalAlign=middle;whiteSpace=wrap;rounded=0;fontSize=18;" vertex="1" parent="1">
          <mxGeometry x="570" y="-150" width="70" height="20" as="geometry" />
        </mxCell>
        <mxCell id="XmuJKlaoHCdb-jjRxGKU-30" value="" style="edgeStyle=orthogonalEdgeStyle;curved=1;rounded=0;orthogonalLoop=1;jettySize=auto;html=1;fontSize=18;" edge="1" parent="1" source="XmuJKlaoHCdb-jjRxGKU-25" target="XmuJKlaoHCdb-jjRxGKU-29">
          <mxGeometry relative="1" as="geometry" />
        </mxCell>
        <mxCell id="XmuJKlaoHCdb-jjRxGKU-25" value="内存" style="rounded=0;whiteSpace=wrap;html=1;fontSize=18;" vertex="1" parent="1">
          <mxGeometry x="130" y="180" width="120" height="60" as="geometry" />
        </mxCell>
        <mxCell id="XmuJKlaoHCdb-jjRxGKU-29" value="重写日志" style="rounded=0;whiteSpace=wrap;html=1;fontSize=18;" vertex="1" parent="1">
          <mxGeometry x="130" y="270" width="120" height="60" as="geometry" />
        </mxCell>
        <mxCell id="XmuJKlaoHCdb-jjRxGKU-84" style="edgeStyle=orthogonalEdgeStyle;curved=1;rounded=0;orthogonalLoop=1;jettySize=auto;html=1;fontSize=18;" edge="1" parent="1" source="XmuJKlaoHCdb-jjRxGKU-33" target="XmuJKlaoHCdb-jjRxGKU-76">
          <mxGeometry relative="1" as="geometry" />
        </mxCell>
        <mxCell id="XmuJKlaoHCdb-jjRxGKU-33" value="redis 主进程" style="rounded=0;whiteSpace=wrap;html=1;labelBackgroundColor=none;fontSize=18;" vertex="1" parent="1">
          <mxGeometry x="-176" y="456" width="300" height="60" as="geometry" />
        </mxCell>
        <mxCell id="XmuJKlaoHCdb-jjRxGKU-55" value="" style="shape=table;startSize=0;container=1;collapsible=0;childLayout=tableLayout;" vertex="1" parent="1">
          <mxGeometry x="-176" y="516" width="300" height="40" as="geometry" />
        </mxCell>
        <mxCell id="XmuJKlaoHCdb-jjRxGKU-56" value="" style="shape=partialRectangle;collapsible=0;dropTarget=0;pointerEvents=0;fillColor=none;top=0;left=0;bottom=0;right=0;points=[[0,0.5],[1,0.5]];portConstraint=eastwest;" vertex="1" parent="XmuJKlaoHCdb-jjRxGKU-55">
          <mxGeometry width="300" height="40" as="geometry" />
        </mxCell>
        <mxCell id="XmuJKlaoHCdb-jjRxGKU-57" value="A=3" style="shape=partialRectangle;html=1;whiteSpace=wrap;connectable=0;overflow=hidden;fillColor=none;top=0;left=0;bottom=0;right=0;" vertex="1" parent="XmuJKlaoHCdb-jjRxGKU-56">
          <mxGeometry width="60" height="40" as="geometry" />
        </mxCell>
        <mxCell id="XmuJKlaoHCdb-jjRxGKU-58" value="" style="shape=partialRectangle;html=1;whiteSpace=wrap;connectable=0;overflow=hidden;fillColor=none;top=0;left=0;bottom=0;right=0;" vertex="1" parent="XmuJKlaoHCdb-jjRxGKU-56">
          <mxGeometry x="60" width="60" height="40" as="geometry" />
        </mxCell>
        <mxCell id="XmuJKlaoHCdb-jjRxGKU-59" value="" style="shape=partialRectangle;html=1;whiteSpace=wrap;connectable=0;overflow=hidden;fillColor=none;top=0;left=0;bottom=0;right=0;" vertex="1" parent="XmuJKlaoHCdb-jjRxGKU-56">
          <mxGeometry x="120" width="60" height="40" as="geometry" />
        </mxCell>
        <mxCell id="XmuJKlaoHCdb-jjRxGKU-60" value="B=6" style="shape=partialRectangle;html=1;whiteSpace=wrap;connectable=0;overflow=hidden;fillColor=none;top=0;left=0;bottom=0;right=0;" vertex="1" parent="XmuJKlaoHCdb-jjRxGKU-56">
          <mxGeometry x="180" width="60" height="40" as="geometry" />
        </mxCell>
        <mxCell id="XmuJKlaoHCdb-jjRxGKU-61" value="" style="shape=partialRectangle;html=1;whiteSpace=wrap;connectable=0;overflow=hidden;fillColor=none;top=0;left=0;bottom=0;right=0;" vertex="1" parent="XmuJKlaoHCdb-jjRxGKU-56">
          <mxGeometry x="240" width="60" height="40" as="geometry" />
        </mxCell>
        <mxCell id="XmuJKlaoHCdb-jjRxGKU-62" value="" style="shape=table;startSize=0;container=1;collapsible=0;childLayout=tableLayout;" vertex="1" parent="1">
          <mxGeometry x="30" y="660" width="300" height="40" as="geometry" />
        </mxCell>
        <mxCell id="XmuJKlaoHCdb-jjRxGKU-63" value="" style="shape=partialRectangle;collapsible=0;dropTarget=0;pointerEvents=0;fillColor=none;top=0;left=0;bottom=0;right=0;points=[[0,0.5],[1,0.5]];portConstraint=eastwest;" vertex="1" parent="XmuJKlaoHCdb-jjRxGKU-62">
          <mxGeometry width="300" height="40" as="geometry" />
        </mxCell>
        <mxCell id="XmuJKlaoHCdb-jjRxGKU-64" value="&lt;span&gt;B=6&lt;/span&gt;" style="shape=partialRectangle;html=1;whiteSpace=wrap;connectable=0;overflow=hidden;fillColor=none;top=0;left=0;bottom=0;right=0;" vertex="1" parent="XmuJKlaoHCdb-jjRxGKU-63">
          <mxGeometry width="60" height="40" as="geometry" />
        </mxCell>
        <mxCell id="XmuJKlaoHCdb-jjRxGKU-65" value="" style="shape=partialRectangle;html=1;whiteSpace=wrap;connectable=0;overflow=hidden;fillColor=none;top=0;left=0;bottom=0;right=0;" vertex="1" parent="XmuJKlaoHCdb-jjRxGKU-63">
          <mxGeometry x="60" width="60" height="40" as="geometry" />
        </mxCell>
        <mxCell id="XmuJKlaoHCdb-jjRxGKU-66" value="&lt;span&gt;A=3&lt;/span&gt;" style="shape=partialRectangle;html=1;whiteSpace=wrap;connectable=0;overflow=hidden;fillColor=none;top=0;left=0;bottom=0;right=0;" vertex="1" parent="XmuJKlaoHCdb-jjRxGKU-63">
          <mxGeometry x="120" width="60" height="40" as="geometry" />
        </mxCell>
        <mxCell id="XmuJKlaoHCdb-jjRxGKU-67" value="" style="shape=partialRectangle;html=1;whiteSpace=wrap;connectable=0;overflow=hidden;fillColor=none;top=0;left=0;bottom=0;right=0;" vertex="1" parent="XmuJKlaoHCdb-jjRxGKU-63">
          <mxGeometry x="180" width="60" height="40" as="geometry" />
        </mxCell>
        <mxCell id="XmuJKlaoHCdb-jjRxGKU-68" value="" style="shape=partialRectangle;html=1;whiteSpace=wrap;connectable=0;overflow=hidden;fillColor=none;top=0;left=0;bottom=0;right=0;" vertex="1" parent="XmuJKlaoHCdb-jjRxGKU-63">
          <mxGeometry x="240" width="60" height="40" as="geometry" />
        </mxCell>
        <mxCell id="XmuJKlaoHCdb-jjRxGKU-85" value="fork" style="text;html=1;strokeColor=none;fillColor=none;align=center;verticalAlign=middle;whiteSpace=wrap;rounded=0;labelBackgroundColor=#ffffff;fontSize=25;" vertex="1" parent="1">
          <mxGeometry x="204" y="476" width="40" height="20" as="geometry" />
        </mxCell>
        <mxCell id="XmuJKlaoHCdb-jjRxGKU-88" value="" style="group" vertex="1" connectable="0" parent="1">
          <mxGeometry x="336" y="456" width="300" height="100" as="geometry" />
        </mxCell>
        <mxCell id="XmuJKlaoHCdb-jjRxGKU-76" value="redis 子进程" style="rounded=0;whiteSpace=wrap;html=1;labelBackgroundColor=none;fontSize=18;" vertex="1" parent="XmuJKlaoHCdb-jjRxGKU-88">
          <mxGeometry width="300" height="60" as="geometry" />
        </mxCell>
        <mxCell id="XmuJKlaoHCdb-jjRxGKU-77" value="" style="shape=table;startSize=0;container=1;collapsible=0;childLayout=tableLayout;" vertex="1" parent="XmuJKlaoHCdb-jjRxGKU-88">
          <mxGeometry y="60" width="300" height="40" as="geometry" />
        </mxCell>
        <mxCell id="XmuJKlaoHCdb-jjRxGKU-78" value="" style="shape=partialRectangle;collapsible=0;dropTarget=0;pointerEvents=0;fillColor=none;top=0;left=0;bottom=0;right=0;points=[[0,0.5],[1,0.5]];portConstraint=eastwest;" vertex="1" parent="XmuJKlaoHCdb-jjRxGKU-77">
          <mxGeometry width="300" height="40" as="geometry" />
        </mxCell>
        <mxCell id="XmuJKlaoHCdb-jjRxGKU-79" value="A=3" style="shape=partialRectangle;html=1;whiteSpace=wrap;connectable=0;overflow=hidden;fillColor=none;top=0;left=0;bottom=0;right=0;" vertex="1" parent="XmuJKlaoHCdb-jjRxGKU-78">
          <mxGeometry width="60" height="40" as="geometry" />
        </mxCell>
        <mxCell id="XmuJKlaoHCdb-jjRxGKU-80" value="" style="shape=partialRectangle;html=1;whiteSpace=wrap;connectable=0;overflow=hidden;fillColor=none;top=0;left=0;bottom=0;right=0;" vertex="1" parent="XmuJKlaoHCdb-jjRxGKU-78">
          <mxGeometry x="60" width="60" height="40" as="geometry" />
        </mxCell>
        <mxCell id="XmuJKlaoHCdb-jjRxGKU-81" value="" style="shape=partialRectangle;html=1;whiteSpace=wrap;connectable=0;overflow=hidden;fillColor=none;top=0;left=0;bottom=0;right=0;" vertex="1" parent="XmuJKlaoHCdb-jjRxGKU-78">
          <mxGeometry x="120" width="60" height="40" as="geometry" />
        </mxCell>
        <mxCell id="XmuJKlaoHCdb-jjRxGKU-82" value="B=6" style="shape=partialRectangle;html=1;whiteSpace=wrap;connectable=0;overflow=hidden;fillColor=none;top=0;left=0;bottom=0;right=0;" vertex="1" parent="XmuJKlaoHCdb-jjRxGKU-78">
          <mxGeometry x="180" width="60" height="40" as="geometry" />
        </mxCell>
        <mxCell id="XmuJKlaoHCdb-jjRxGKU-83" value="" style="shape=partialRectangle;html=1;whiteSpace=wrap;connectable=0;overflow=hidden;fillColor=none;top=0;left=0;bottom=0;right=0;" vertex="1" parent="XmuJKlaoHCdb-jjRxGKU-78">
          <mxGeometry x="240" width="60" height="40" as="geometry" />
        </mxCell>
        <mxCell id="XmuJKlaoHCdb-jjRxGKU-95" style="edgeStyle=orthogonalEdgeStyle;curved=1;rounded=0;orthogonalLoop=1;jettySize=auto;html=1;entryX=0;entryY=0.5;entryDx=0;entryDy=0;fontSize=25;" edge="1" parent="1" source="XmuJKlaoHCdb-jjRxGKU-56" target="XmuJKlaoHCdb-jjRxGKU-78">
          <mxGeometry relative="1" as="geometry" />
        </mxCell>
        <mxCell id="XmuJKlaoHCdb-jjRxGKU-101" value="copy" style="edgeLabel;html=1;align=center;verticalAlign=middle;resizable=0;points=[];fontSize=25;fontColor=#000000;" vertex="1" connectable="0" parent="XmuJKlaoHCdb-jjRxGKU-95">
          <mxGeometry x="-0.116" y="4" relative="1" as="geometry">
            <mxPoint x="7" y="4" as="offset" />
          </mxGeometry>
        </mxCell>
        <mxCell id="XmuJKlaoHCdb-jjRxGKU-97" value="" style="endArrow=classic;html=1;fontSize=25;exitX=0.711;exitY=1.047;exitDx=0;exitDy=0;exitPerimeter=0;" edge="1" parent="1" source="XmuJKlaoHCdb-jjRxGKU-78">
          <mxGeometry width="50" height="50" relative="1" as="geometry">
            <mxPoint x="386" y="625" as="sourcePoint" />
            <mxPoint x="64" y="658" as="targetPoint" />
          </mxGeometry>
        </mxCell>
        <mxCell id="XmuJKlaoHCdb-jjRxGKU-98" value="" style="endArrow=classic;html=1;fontSize=25;exitX=0.093;exitY=1.15;exitDx=0;exitDy=0;exitPerimeter=0;" edge="1" parent="1" source="XmuJKlaoHCdb-jjRxGKU-78">
          <mxGeometry width="50" height="50" relative="1" as="geometry">
            <mxPoint x="195" y="625" as="sourcePoint" />
            <mxPoint x="176" y="663" as="targetPoint" />
          </mxGeometry>
        </mxCell>
        <mxCell id="XmuJKlaoHCdb-jjRxGKU-99" value="" style="endArrow=classic;html=1;fontSize=25;exitX=0.689;exitY=0.982;exitDx=0;exitDy=0;exitPerimeter=0;" edge="1" parent="1" source="XmuJKlaoHCdb-jjRxGKU-56">
          <mxGeometry width="50" height="50" relative="1" as="geometry">
            <mxPoint x="559.2999999999997" y="567.8799999999999" as="sourcePoint" />
            <mxPoint x="57" y="659" as="targetPoint" />
          </mxGeometry>
        </mxCell>
        <mxCell id="XmuJKlaoHCdb-jjRxGKU-100" value="" style="endArrow=classic;html=1;fontSize=25;exitX=0.118;exitY=1.076;exitDx=0;exitDy=0;exitPerimeter=0;" edge="1" parent="1" source="XmuJKlaoHCdb-jjRxGKU-56">
          <mxGeometry width="50" height="50" relative="1" as="geometry">
            <mxPoint x="373.9000000000001" y="571.9999999999998" as="sourcePoint" />
            <mxPoint x="179" y="661" as="targetPoint" />
          </mxGeometry>
        </mxCell>
      </root>
    </mxGraphModel>
  </diagram>
</mxfile>
